<?xml version="1.0" encoding="utf-8"?>
<!-- Generator: Adobe Illustrator 17.0.0, SVG Export Plug-In . SVG Version: 6.00 Build 0)  -->
<!DOCTYPE svg PUBLIC "-//W3C//DTD SVG 1.1//EN" "http://www.w3.org/Graphics/SVG/1.1/DTD/svg11.dtd">
<svg version="1.1" id="Layer_1" xmlns="http://www.w3.org/2000/svg" xmlns:xlink="http://www.w3.org/1999/xlink" x="0px" y="0px"
	 width="100px" height="100px" viewBox="0 0 100 100" enable-background="new 0 0 100 100" xml:space="preserve">
<g>
	<g>
<path d="M1020 10914 c-376 -34 -617 -137 -675 -287 -13 -35 -16 -66 -13 -125
7 -128 64 -229 303 -535 63 -82 122 -162 130 -178 16 -30 23 -94 12 -105 -13
-14 -97 29 -130 65 -40 44 -94 135 -162 270 -55 111 -127 192 -190 217 -63 24
-193 17 -232 -12 -34 -26 -34 -50 2 -190 38 -151 119 -307 219 -427 44 -52
194 -170 292 -230 126 -76 177 -89 387 -97 137 -5 191 -10 197 -20 23 -37 40
-355 24 -452 -6 -36 -8 -38 -46 -38 -22 0 -112 11 -201 24 -351 54 -367 54
-367 1 0 -35 24 -48 73 -42 54 7 119 -7 236 -51 84 -32 91 -37 75 -49 -23 -17
-251 -106 -329 -128 -118 -34 -171 -80 -163 -138 5 -37 49 -33 132 13 55 30
108 48 203 70 71 16 183 46 249 67 165 52 249 51 424 -1 68 -21 180 -49 247
-62 146 -29 158 -33 224 -79 54 -37 77 -43 97 -23 18 18 14 52 -9 82 -27 35
-39 40 -171 80 -119 36 -262 93 -306 122 l-26 17 114 39 c70 24 143 41 187 45
78 6 97 18 91 55 -4 33 -33 33 -221 4 -207 -33 -368 -49 -380 -37 -13 13 -2
397 13 446 7 22 17 43 24 47 6 4 88 8 181 8 257 1 322 19 520 150 136 90 237
191 287 285 89 170 156 387 142 460 -17 94 -137 115 -271 48 -73 -36 -111 -85
-208 -273 -100 -193 -164 -260 -252 -260 -24 0 -43 2 -43 4 0 2 6 21 14 43 22
63 73 138 202 299 208 259 263 355 272 473 11 156 -91 261 -328 335 -160 51
-291 67 -560 71 -135 1 -265 1 -290 -1z"/>
<path d="M5161 10879 c-151 -95 -291 -151 -411 -164 -72 -7 -159 8 -300 51
-86 26 -192 35 -242 22 -38 -11 -43 -50 -19 -153 24 -98 26 -162 9 -200 l-11
-25 -141 0 c-123 0 -145 -3 -173 -20 -46 -28 -46 -76 2 -150 50 -79 47 -107
-17 -185 -197 -237 -222 -460 -63 -543 37 -19 121 -42 156 -42 19 0 29 -7 34
-22 3 -13 10 -171 15 -353 9 -348 16 -405 61 -486 31 -57 95 -93 154 -85 43 5
67 27 135 121 42 58 74 71 212 86 72 8 143 7 275 -2 129 -9 598 -14 1708 -16
1429 -3 1530 -5 1548 -21 11 -9 36 -53 56 -97 66 -143 148 -157 245 -43 81 94
100 262 72 647 -9 124 -16 230 -16 236 0 15 32 29 154 71 55 19 110 44 124 56
53 50 69 118 47 203 -19 73 -55 134 -148 251 -89 113 -127 172 -127 198 0 12
16 46 35 76 48 74 48 122 3 150 -37 23 -82 25 -191 10 -136 -19 -158 7 -137
158 25 173 14 200 -86 209 -78 7 -151 -12 -314 -82 -72 -31 -145 -59 -164 -62
-67 -11 -320 77 -420 146 -24 17 -48 31 -52 31 -3 0 -54 -23 -113 -52 -88 -43
-115 -52 -161 -53 l-55 0 -25 50 c-30 60 -48 65 -125 36 -244 -91 -604 -83
-923 20 -76 25 -104 20 -132 -26 -26 -41 -56 -65 -85 -65 -11 0 -56 21 -100
46 -218 127 -211 125 -294 73z"/>
<path d="M12136 10841 l-450 -6 -31 -105 c-74 -246 -296 -740 -454 -1007 -34
-56 -65 -104 -70 -107 -5 -3 -52 23 -105 58 -122 82 -166 97 -296 103 -95 5
-113 3 -185 -22 -164 -55 -305 -172 -410 -343 -1 -1 -40 -9 -86 -16 -227 -37
-411 -164 -560 -389 -66 -99 -292 -551 -311 -621 -21 -77 8 -95 93 -56 61 27
80 25 221 -19 67 -22 197 -59 288 -82 407 -102 426 -110 423 -168 -1 -41 25
-58 95 -63 l54 -3 53 150 c158 452 316 719 499 844 68 47 106 55 175 37 85
-22 131 -43 131 -60 0 -8 -33 -108 -74 -223 -71 -199 -106 -335 -106 -409 0
-28 5 -36 27 -45 15 -6 42 -8 59 -4 38 7 41 13 89 190 20 72 48 171 62 220 28
95 88 236 122 284 l20 28 68 -15 c96 -20 238 -11 324 20 103 38 156 74 207
141 108 141 137 161 191 133 64 -33 120 -130 170 -294 36 -116 55 -142 105
-142 77 0 72 55 -23 278 -72 168 -97 211 -162 275 -27 27 -49 56 -49 65 0 10
42 100 94 202 137 270 292 625 400 922 9 25 24 52 32 58 10 9 14 36 14 101 l0
89 -32 0 c-18 0 -62 2 -98 3 -36 2 -267 1 -514 -2z m-1259 -1202 c35 -17 86
-51 114 -77 l51 -47 -34 -45 c-46 -60 -106 -96 -208 -121 -71 -18 -102 -21
-190 -16 -89 5 -291 45 -307 61 -9 9 57 94 116 149 142 131 310 166 458 96z"/>
<path d="M3640 8333 c-103 -10 -388 -48 -550 -73 -102 -16 -254 -38 -339 -49
-84 -11 -156 -22 -159 -26 -9 -9 38 -162 78 -255 21 -47 78 -159 128 -250 107
-197 143 -276 177 -382 39 -124 55 -237 55 -394 0 -163 -4 -174 -79 -194 -39
-10 -71 -41 -71 -67 0 -7 19 -23 43 -37 23 -14 87 -57 142 -96 121 -86 201
-127 278 -141 83 -15 144 1 252 65 170 102 204 101 426 -8 124 -61 181 -83
294 -111 164 -42 218 -65 300 -129 69 -54 410 -372 595 -555 323 -320 367
-319 740 14 69 61 177 150 240 197 207 155 272 239 278 361 4 63 1 75 -32 142
-45 92 -125 178 -364 393 -460 416 -554 468 -957 532 -71 12 -186 30 -255 41
-253 41 -383 84 -496 164 -108 77 -177 169 -339 450 -54 94 -111 190 -128 215
-46 68 -182 200 -203 198 -11 0 -35 -3 -54 -5z"/>
<path d="M735 8094 c-218 -21 -430 -68 -502 -110 -103 -60 -113 -188 -44 -536
76 -385 75 -436 -29 -1013 -27 -148 -62 -379 -79 -512 -17 -133 -42 -288 -56
-345 -15 -61 -25 -132 -25 -175 0 -80 10 -93 70 -93 56 0 70 15 70 72 0 28 13
135 30 237 16 102 52 350 80 551 27 201 55 393 61 428 l11 63 32 -6 c17 -4 58
-18 91 -32 33 -14 96 -38 140 -54 l80 -28 8 -103 c11 -143 0 -729 -18 -928
-19 -210 -20 -495 -2 -530 12 -23 18 -25 67 -23 30 2 59 8 66 15 9 10 10 66 3
233 -8 212 -3 416 21 875 13 243 29 442 35 448 21 21 131 35 317 39 233 6 214
12 236 -78 19 -75 34 -366 33 -619 -1 -355 5 -385 71 -371 l33 7 -5 259 c-3
143 -5 381 -5 528 0 268 0 269 23 287 12 10 46 23 75 28 61 12 250 31 255 27
2 -2 17 -50 34 -107 51 -174 95 -413 164 -905 50 -346 71 -474 81 -478 8 -2
27 2 44 10 49 26 55 -22 -116 1010 -42 248 -83 495 -93 550 l-18 100 -47 17
c-46 17 -181 46 -324 68 -67 11 -72 13 -83 43 -26 69 -24 260 5 467 15 107 28
245 28 306 2 107 0 113 -27 154 -42 64 -114 138 -161 165 -75 44 -153 57 -380
60 -116 1 -228 1 -250 -1z m410 -144 c147 -21 240 -71 271 -147 15 -34 18
-100 8 -151 -6 -29 -7 -30 -108 -46 -55 -8 -198 -20 -316 -26 -369 -18 -551
-30 -624 -41 -63 -10 -71 -9 -83 7 -38 52 -56 204 -32 273 13 37 72 71 165 95
140 36 567 57 719 36z m209 -499 c32 -35 45 -93 46 -199 0 -87 -16 -292 -24
-299 -15 -15 -313 -48 -656 -73 -359 -26 -324 -28 -339 21 -17 55 -29 187 -33
344 l-2 130 64 17 c156 43 468 72 811 77 103 1 118 -1 133 -18z"/>
<path d="M9002 7735 c-20 -25 -24 -43 -38 -153 -3 -28 -13 -61 -22 -71 -21
-23 -134 -45 -527 -101 -376 -53 -446 -69 -462 -102 -13 -26 -13 -38 17 -848
5 -146 15 -316 21 -378 11 -106 13 -113 36 -118 36 -10 109 0 195 26 90 27 88
23 77 172 -7 86 -1 170 13 183 4 4 147 -40 1053 -325 435 -137 828 -258 874
-269 46 -12 102 -31 125 -44 l41 -23 0 -335 c0 -264 3 -339 13 -352 23 -28 97
-50 143 -43 73 12 210 92 236 139 9 15 13 86 13 237 0 118 5 287 10 374 8 150
10 161 32 177 31 24 158 86 236 116 35 13 118 49 185 79 137 63 263 108 282
100 7 -2 21 -60 34 -148 49 -317 49 -318 87 -334 53 -22 112 -17 182 16 34 16
65 36 68 45 9 22 -27 360 -102 952 -35 281 -64 519 -64 528 0 10 -18 24 -45
36 -30 13 -47 28 -51 44 -3 13 -4 81 -2 151 l3 127 -40 15 c-29 10 -112 17
-295 23 -140 4 -421 19 -625 34 -758 52 -1106 73 -1536 90 l-147 6 -20 -26z
m-54 -402 c2 -28 -1 -66 -6 -84 -7 -27 -14 -35 -43 -41 -106 -22 -672 -128
-687 -128 -42 0 -57 -25 -62 -102 -4 -65 -7 -73 -27 -76 -44 -6 -53 28 -53
205 0 90 2 163 4 163 2 0 96 16 207 36 289 51 524 83 599 81 l65 -2 3 -52z
m-1 -228 c8 -22 -21 -50 -65 -63 -21 -7 -119 -26 -218 -42 -98 -17 -201 -38
-228 -46 -51 -15 -123 -18 -150 -8 -36 14 -7 66 44 78 14 4 124 22 245 41 121
19 234 39 250 44 50 15 115 13 122 -4z"/>
<path d="M11755 5581 c-27 -11 -79 -32 -114 -46 -62 -26 -69 -27 -182 -20
l-118 7 -7 -26 c-3 -14 0 -49 7 -78 18 -68 18 -378 0 -508 -7 -52 -33 -205
-57 -340 -66 -366 -74 -421 -81 -587 l-6 -152 -48 -20 c-26 -12 -112 -32 -191
-46 -178 -31 -229 -46 -349 -101 -53 -24 -110 -47 -127 -50 -31 -6 -32 -8 -32
-56 0 -54 -6 -68 -58 -146 -56 -82 -52 -129 26 -307 100 -230 111 -298 62
-395 -19 -37 -30 -75 -30 -101 0 -32 -7 -49 -35 -82 -42 -49 -43 -84 -3 -106
24 -14 32 -13 80 2 63 20 75 36 87 120 5 35 19 84 31 107 18 36 22 60 22 129
0 96 -15 171 -65 341 l-34 115 49 65 c48 63 95 100 129 100 10 0 55 -20 102
-45 93 -49 145 -57 185 -29 20 14 26 13 88 -22 36 -20 84 -42 107 -49 l42 -12
32 -154 c40 -197 58 -253 92 -291 22 -25 34 -30 70 -30 24 1 46 3 49 6 14 15
2 69 -26 113 -40 63 -62 156 -62 268 1 81 2 88 15 71 8 -11 15 -35 15 -54 0
-25 7 -40 25 -54 71 -56 96 -200 76 -444 -17 -212 -25 -425 -17 -467 8 -41 37
-57 102 -57 51 0 88 15 78 32 -4 6 -11 68 -14 137 -5 79 -14 140 -24 165 -32
77 -21 182 54 516 11 52 24 141 27 197 6 100 7 103 37 126 61 47 119 71 173
71 45 0 57 -4 84 -29 l31 -30 -8 -130 c-5 -71 -8 -191 -8 -265 0 -116 3 -143
23 -192 43 -111 121 -167 193 -139 27 10 27 11 14 54 -7 24 -31 68 -53 98 -22
30 -45 69 -52 88 -19 57 -12 157 20 303 41 182 39 265 -7 324 -56 71 -57 77
-56 244 1 164 17 307 57 523 90 478 110 646 101 842 -7 152 5 272 33 337 33
73 11 97 -70 79 -96 -22 -129 -14 -237 57 -45 30 -62 36 -125 39 -54 3 -84 -1
-122 -16z m-122 -166 c26 -25 40 -169 34 -341 -6 -166 -11 -194 -86 -504 -62
-258 -73 -324 -78 -488 l-6 -153 -31 -23 c-40 -30 -91 -56 -111 -56 -13 0 -15
23 -15 168 0 187 12 299 70 654 46 286 60 425 60 605 0 153 0 152 92 153 37 0
62 -5 71 -15z m496 -14 c21 -14 34 -171 27 -356 -6 -188 -15 -261 -81 -635
-54 -314 -64 -383 -72 -532 -5 -93 -9 -118 -20 -118 -8 0 -44 28 -80 62 l-65
63 7 100 c10 160 33 315 80 540 81 386 102 556 91 757 -4 88 -3 118 7 121 20
9 91 7 106 -2z"/>
<path d="M8782 5374 c-26 -18 -111 -129 -312 -409 -79 -110 -182 -248 -228
-307 -78 -99 -87 -108 -126 -113 -76 -12 -103 -49 -84 -118 l11 -44 -58 -84
c-32 -46 -126 -178 -210 -294 -83 -115 -181 -254 -219 -307 -79 -114 -42 -110
-305 -36 -96 26 -209 55 -250 64 -75 15 -76 15 -94 -7 -12 -15 -17 -35 -15
-63 3 -38 7 -43 50 -63 25 -13 97 -36 160 -53 180 -48 260 -79 253 -99 -15
-40 -82 -139 -236 -346 -165 -222 -269 -373 -292 -422 -10 -23 -8 -28 26 -59
50 -46 71 -44 125 16 34 38 52 50 74 50 15 0 90 -24 166 -54 75 -29 182 -68
237 -86 142 -46 448 -160 463 -172 9 -8 8 -17 -8 -43 -27 -44 -25 -54 15 -97
58 -64 85 -53 179 76 68 93 360 520 421 616 89 142 108 150 218 104 128 -54
230 -84 289 -84 33 0 81 -8 111 -19 123 -46 197 -72 280 -96 79 -23 87 -28 87
-51 0 -32 24 -41 56 -20 28 19 51 15 223 -45 46 -16 117 -36 158 -44 85 -18
97 -13 112 41 18 64 2 80 -116 118 -28 10 -56 22 -61 29 -10 13 -106 315 -217
682 -36 121 -97 313 -136 427 -78 231 -85 272 -51 318 13 16 115 159 228 318
113 158 235 323 271 367 103 126 123 193 70 230 -42 30 -75 19 -130 -40 -59
-64 -73 -67 -215 -36 -48 11 -202 36 -342 55 -140 20 -304 47 -365 59 l-110
22 3 36 c6 63 -61 115 -106 83z m-38 -341 c-18 -76 -63 -185 -175 -418 -126
-263 -161 -317 -243 -377 l-39 -28 -22 38 c-35 62 -45 100 -35 127 5 14 45 71
88 128 43 56 118 158 167 227 216 308 277 378 259 303z m-615 -876 c8 -12 25
-55 37 -94 l22 -73 -40 -50 c-79 -99 -254 -220 -407 -280 l-53 -21 18 25 c11
13 49 61 85 107 37 46 119 159 183 251 70 100 121 165 129 162 7 -2 19 -14 26
-27z m1214 -134 c57 -201 228 -748 253 -814 35 -91 44 -159 22 -159 -54 0
-789 213 -816 236 -16 12 92 177 376 576 123 171 153 201 165 161z m-645 -625
c-6 -18 -49 -46 -82 -54 -38 -9 -31 13 14 44 35 24 74 30 68 10z m-973 -44
c251 -71 688 -216 709 -235 5 -4 6 -18 3 -31 -9 -35 -288 -429 -418 -591 -16
-19 -21 -18 -330 85 -338 114 -579 205 -579 220 0 16 21 49 65 103 23 29 87
119 143 201 109 161 216 294 235 294 7 0 84 -20 172 -46z"/>
<path d="M4669 5121 c-144 -9 -239 -25 -289 -49 -29 -14 -36 -24 -43 -62 -11
-59 -2 -238 18 -373 34 -223 34 -462 1 -540 -7 -18 -43 -65 -79 -106 -75 -82
-84 -106 -93 -236 -11 -152 22 -677 61 -985 13 -102 22 -204 19 -225 -10 -84
54 -123 100 -62 19 25 21 45 25 178 3 127 6 150 18 147 9 -2 21 -19 27 -38 9
-28 17 -36 39 -38 40 -5 63 21 71 77 4 27 12 54 20 60 9 8 177 10 587 9 l574
-3 8 -40 c16 -78 22 -90 50 -99 36 -13 59 1 69 42 5 18 15 32 22 32 19 0 25
-51 24 -180 -1 -120 14 -165 59 -176 42 -11 63 23 63 105 0 36 11 156 25 266
31 255 59 719 53 900 -6 162 -11 177 -95 270 -67 73 -78 94 -92 170 -18 94
-13 238 15 451 29 228 31 427 4 444 -25 17 -111 39 -190 50 -94 13 -901 21
-1071 11z"/>
<path d="M1235 4950 c-266 -28 -398 -132 -412 -325 -3 -40 2 -143 10 -231 9
-87 19 -211 22 -274 18 -351 48 -668 81 -859 19 -113 18 -111 57 -111 25 0 46
11 86 45 65 55 87 57 176 10 98 -51 162 -101 191 -150 22 -38 27 -63 35 -177
12 -158 21 -197 53 -227 31 -29 108 -40 133 -20 35 29 54 97 64 227 12 156 22
195 56 221 89 71 417 204 654 267 101 26 101 26 128 7 14 -11 44 -49 66 -86
51 -83 89 -124 131 -137 76 -25 101 17 88 148 -14 144 -11 191 18 262 48 119
59 196 65 461 3 136 2 281 -2 323 -6 72 -8 76 -33 82 -135 27 -276 86 -577
238 -448 228 -602 284 -833 306 -117 11 -152 11 -257 0z"/>
<path d="M2530 2434 c-80 -16 -346 -50 -495 -64 -478 -43 -1076 -31 -1484 31
-88 13 -137 17 -144 10 -12 -12 -11 -70 2 -137 13 -68 6 -90 -46 -146 -23 -26
-43 -51 -43 -56 0 -5 13 -38 29 -74 26 -57 61 -169 61 -196 0 -25 -61 -79
-167 -149 -125 -83 -164 -122 -199 -197 -30 -63 -30 -101 -2 -202 18 -65 22
-106 23 -234 l0 -155 34 -70 34 -70 7 -255 c6 -189 12 -268 24 -306 29 -94 79
-134 164 -134 60 0 70 11 81 81 5 29 16 58 25 64 27 20 774 25 2276 14 778 -6
1533 -8 1677 -4 301 7 290 10 314 -85 25 -98 78 -124 152 -73 68 47 111 124
150 268 19 74 21 108 23 437 l2 357 36 44 c137 168 93 313 -157 508 -119 93
-157 129 -157 150 0 9 23 52 51 95 53 81 79 132 79 157 0 9 -22 19 -57 27
-109 24 -130 46 -119 127 17 116 17 148 4 164 -12 15 -27 15 -193 -6 -413 -52
-542 -60 -935 -60 -316 0 -394 3 -495 19 -150 23 -321 65 -406 100 -35 15 -68
29 -74 30 -5 2 -39 -2 -75 -10z"/>
<path d="M11910 1970 c-178 -17 -1281 -22 -2450 -11 -1048 9 -1229 9 -1310 -4
-108 -16 -212 -49 -232 -72 -8 -10 -15 -65 -19 -162 -4 -95 -12 -159 -22 -182
l-15 -36 -139 -6 c-77 -3 -183 -13 -236 -23 l-96 -17 -11 -51 c-22 -102 -31
-309 -21 -459 13 -182 33 -284 70 -362 54 -117 131 -179 299 -245 90 -36 97
-41 100 -69 2 -16 -6 -60 -17 -96 -12 -37 -21 -76 -21 -87 0 -29 54 -78 86
-78 36 0 95 61 151 156 58 97 109 146 175 166 105 33 208 40 465 34 486 -11
1323 -24 2341 -37 l1033 -13 28 -32 c16 -18 52 -74 81 -125 81 -145 112 -171
175 -145 61 26 67 58 30 172 -40 122 -35 134 61 146 219 26 339 201 375 544
11 114 6 513 -7 548 -10 26 -67 38 -249 51 -99 7 -188 16 -197 20 -17 7 -32
76 -43 210 -8 96 -24 176 -41 202 -32 51 -181 78 -344 63z"/>
<path d="M6014 1860 c-173 -12 -291 -41 -351 -87 -28 -20 -33 -31 -33 -65 0
-32 6 -46 33 -72 17 -17 43 -38 56 -47 24 -15 24 -17 12 -61 -10 -34 -10 -51
-2 -66 18 -34 13 -109 -13 -170 -20 -48 -23 -68 -19 -127 4 -50 1 -84 -11
-118 -11 -32 -16 -84 -16 -160 -1 -62 -5 -143 -10 -182 -4 -38 -11 -96 -15
-127 l-8 -58 36 -15 c20 -8 50 -15 67 -15 40 0 54 32 69 159 13 103 15 111 37
111 18 0 18 -69 3 -373 -11 -211 -11 -221 7 -234 11 -8 35 -13 54 -11 56 5 70
45 80 238 8 150 18 200 40 200 5 0 29 20 52 44 44 46 93 65 150 58 24 -3 28
-9 34 -48 5 -35 12 -48 31 -57 23 -10 29 -8 59 26 19 20 44 39 57 42 40 10 55
-21 72 -146 29 -203 28 -200 57 -222 14 -11 43 -20 63 -21 30 -1 42 5 58 26
20 27 20 28 3 184 -9 86 -20 220 -23 297 -4 103 -10 147 -20 159 -12 13 -12
21 -3 38 8 15 9 30 1 51 -7 21 -7 37 1 55 9 20 7 34 -11 80 -30 71 -42 165
-24 196 18 33 16 56 -12 138 -14 40 -25 81 -25 90 0 9 21 26 53 41 119 57 95
172 -44 214 -108 31 -356 47 -545 35z m-107 -458 c-11 -60 -12 -93 -5 -122 7
-28 6 -68 -6 -149 -9 -60 -16 -128 -16 -150 0 -30 -4 -41 -15 -41 -8 0 -15 6
-16 13 -5 66 -3 122 9 172 7 33 12 108 12 167 -1 90 2 111 20 140 11 18 21 49
21 68 2 26 3 29 6 10 2 -14 -3 -62 -10 -108z m330 67 c9 -17 13 -90 13 -249
l0 -225 -43 -49 -43 -49 -70 -1 -69 -1 2 40 c1 22 3 105 3 185 1 93 7 163 16
194 8 27 14 62 14 78 0 35 54 87 90 88 14 0 32 5 40 10 20 13 33 8 47 -21z
m164 -11 c1 -13 0 -40 -1 -61 -1 -27 5 -46 18 -60 25 -28 34 -120 19 -200 -9
-47 -8 -63 5 -90 9 -18 14 -45 11 -60 -3 -15 -1 -33 4 -40 5 -6 7 -38 5 -70
-4 -54 -5 -57 -25 -51 -12 3 -32 12 -43 19 -21 13 -22 21 -26 317 -3 167 -3
306 -1 311 9 16 33 6 34 -15z"/>
</g>
</svg>
